<?xml version="1.0" encoding="utf-8"?>
<!-- Generator: Adobe Illustrator 27.5.0, SVG Export Plug-In . SVG Version: 6.00 Build 0)  -->
<svg version="1.1" id="Capa_1" xmlns="http://www.w3.org/2000/svg" xmlns:xlink="http://www.w3.org/1999/xlink" x="0px" y="0px"
	 viewBox="0 0 425.197 400.859" style="enable-background:new 0 0 425.197 400.859;" xml:space="preserve">
<rect style="fill:#FFFFFF;" width="425.197" height="400.859"/>
<polygon style="fill:#A7A9AC;" points="90.089,263.317 74.518,263.317 202.732,361 398,319.038 384.83,312.555 "/>
<g>
	<polygon style="fill:#14BAAB;" points="102.904,227.355 233.439,204.645 384.83,263.317 202.732,298.254 	"/>
	<path style="fill:#D1D3D4;" d="M309.075,233.958c-1.975,4.336-4.479,8.437-7.72,12.157c-7.336,8.423-16.937,14.192-27.143,18.467
		c-21.51,9.012-46.145,11.057-69.113,7.857c-18.933-2.638-37.627-11.157-53.949-20.875c-11.278-6.714-23.881-15.537-30.722-27.259
		l-17.524,3.048l99.828,70.899l182.098-34.937L309.075,233.958z"/>
	<path style="fill:#007F7A;" d="M102.904,227.355c0,0-24.348,11.338-12.814,35.962l115.861,86.39c0,0-19.75-21.398-3.219-51.453
		L102.904,227.355z"/>
	<path style="fill:#D6CCB1;" d="M384.83,263.317l-182.098,34.937c0,0-21.339,26.851,3.219,51.453l178.879-38.271V263.317z"/>
	<path style="fill:#007F7A;" d="M197.519,304.686l187.31-35.326v-6.043l-182.098,34.937
		C202.732,298.254,197.519,300.329,197.519,304.686z"/>
	<path style="fill:#007F7A;" d="M205.951,349.707l178.879-37.152v-6.043L200.871,344.37
		C200.871,344.37,200.472,345.45,205.951,349.707z"/>
	<path style="opacity:0.1;fill:#FFFFFF;" d="M233.439,204.645l151.391,58.671l-182.098,34.937
		C202.732,298.254,325.531,270.001,233.439,204.645z"/>
</g>
<g>
	<polyline style="fill:#F36D36;" points="57.173,193.723 155.162,150.646 377.859,179.576 297.07,224.886 57.173,193.723 	"/>
	<path style="fill:#D1D3D4;" d="M302.107,169.735c-1.417-0.184-6.436,4.337-7.795,5.176c-2.821,1.741-5.712,3.373-8.658,4.893
		c-5.823,3.006-11.878,5.585-18.034,7.83c-24.916,9.087-51.559,12.6-77.978,12.958c-7.545,0.103-15.096-0.088-22.63-0.502
		c-17.322-0.951-34.995-3.451-51.338-9.48c-4.066-1.5-8.031-3.236-11.883-5.223c-1.484-0.765-10.808-7.405-11.793-6.972
		l-34.825,15.309l239.897,31.163l80.789-45.31C377.859,179.576,302.108,169.735,302.107,169.735z"/>
	<path style="fill:#D6CCB1;" d="M289.469,283.4l80.847-45.76l6.902-53.133l-91.881,52.206
		C285.337,236.712,270.337,264.65,289.469,283.4"/>
	<polygon style="fill:#9D451C;" points="286.558,230.882 285.858,236.263 377.218,184.507 377.859,179.576 	"/>
	<polygon style="fill:#9D451C;" points="286.669,279.872 289.469,283.4 370.316,237.64 370.957,232.71 	"/>
	<path style="fill:#9D451C;" d="M289.469,283.4L49.571,252.235c-17.92-31.876,7.602-58.513,7.602-58.513l239.897,31.163
		C297.07,224.886,273.514,249.547,289.469,283.4z"/>
	<path style="fill:#D1D3D4;" d="M97.365,198.944c0,0-18.336,28.981-7.601,58.513l15.922,2.068c0,0-9.992-29.031,7.601-58.513
		L97.365,198.944z"/>
	<path style="fill:#D1D3D4;" d="M122.441,202.202c0,0-18.336,28.981-7.601,58.513l15.922,2.068c0,0-9.991-29.031,7.601-58.513
		L122.441,202.202z"/>
	<path style="fill:#D1D3D4;" d="M239.068,217.352c0,0-18.336,28.981-7.601,58.513l15.922,2.068c0,0-9.99-29.031,7.602-58.513
		L239.068,217.352z"/>
	<polygon style="fill:#FFFFFF;" points="189.035,160.061 232.024,165.646 173.187,200.516 123.499,194.061 	"/>
</g>
<g>
	<polygon style="fill:#76201E;" points="23.432,191.503 26.074,159.374 201.665,92.528 197.699,120.405 	"/>
	<g>
		<polygon style="fill:#EC524F;" points="180.126,125.585 370.441,152.919 183.491,227.214 23.805,186.975 		"/>
		<polygon style="fill:#842825;" points="23.805,186.975 23.432,191.503 183.258,232.329 183.685,227.136 		"/>
		<polygon style="fill:#AD3A38;" points="183.258,232.329 183.685,227.136 370.441,152.919 369.911,159.371 		"/>
	</g>
	<g>
		<path style="fill:#9D9B83;" d="M41.006,157.278c0,0,3.169,19.084-1.992,24.602l148.246,37.189l10.493-27.071L41.006,157.278z"/>
		<g>
			<polygon style="fill:#BFBC9E;" points="199.426,94.322 39.779,157.766 207.799,194.224 359.983,133.746 			"/>
			<polygon style="fill:#777664;" points="359.983,133.746 197.753,191.999 187.26,219.069 341.695,157.696 			"/>
		</g>
	</g>
	<g>
		<polygon style="fill:#EC524F;" points="201.665,92.528 370.136,125.106 183.186,199.401 26.074,159.374 		"/>
		<polygon style="fill:#842825;" points="26.074,159.374 25.666,164.332 185.528,204.728 186.059,198.258 		"/>
		<polygon style="fill:#AD3A38;" points="185.528,204.728 186.059,198.258 370.136,125.106 369.604,131.576 		"/>
	</g>
</g>
<g>
	<path style="fill:#A27232;" d="M107.128,101.839L281.9,121.881c0,0,32.273,5.328,31.672,25.671c0,0-1.132,8.82-8.484,6.849
		c0,0-6.066-2.511-1.562-11.579c0,0-0.7-10.84-38.878-14.783l-157.52-6.083V101.839z"/>
	<path style="fill:#BE853C;" d="M303.525,101.839l-174.775,20.042c0,0-32.271,5.328-31.672,25.671c0,0,1.129,8.82,8.485,6.849
		c0,0,6.063-2.511,1.563-11.579c0,0,0.7-10.84,38.876-14.783l157.522-6.083V101.839z"/>
	<g>
		<path style="fill:#D69644;" d="M222.871,120.312c-1.558,1.444-4.176,1.186-6.121-0.055c-6.925-4.504-15.924-4.504-22.849,0
			c-1.944,1.241-4.563,1.499-6.122,0.055l0,0c-1.556-1.427-0.86-4.667,1.946-6.488c9.456-6.151,21.746-6.151,31.201,0
			C223.732,115.645,224.427,118.885,222.871,120.312L222.871,120.312z"/>
		<path style="fill:#D69644;" d="M222.871,120.312c-1.558,1.444-4.176,1.186-6.121-0.055c-6.925-4.504-15.924-4.504-22.849,0
			c-1.944,1.241-4.563,1.499-6.122,0.055l0,0c-1.556-1.427-0.86-4.667,1.946-6.488c9.456-6.151,21.746-6.151,31.201,0
			C223.732,115.645,224.427,118.885,222.871,120.312L222.871,120.312z"/>
		<path style="fill:#BCBEC0;" d="M222.871,118.808c-1.558,1.443-4.176,1.185-6.121-0.054c-6.925-4.505-15.924-4.505-22.849,0
			c-1.944,1.239-4.563,1.498-6.122,0.054c-0.372-0.343-0.604-0.794-0.72-1.3c-0.225,1.108,0.005,2.148,0.72,2.804
			c1.559,1.444,4.178,1.186,6.122-0.055c6.924-4.504,15.924-4.504,22.849,0c1.945,1.241,4.564,1.499,6.121,0.055
			c0.716-0.656,0.945-1.696,0.721-2.804C223.476,118.014,223.245,118.465,222.871,118.808z"/>
		<path style="fill:#FFFFFF;" d="M197.306,111.647c0,0,14.075-4.83,23.045,3.605c0,0,0.276,1.777-1.932,1.363
			c0,0-5.382-7.234-21.113-3.135C197.306,113.48,195.544,112.229,197.306,111.647z"/>
	</g>
	<g>
		<path style="fill:#150000;" d="M103.748,97.879c10.803-0.002,17.464-10.514,26.051-15.352c17.309-9.752,41.716-5.521,54.813,9.481
			c4.494,5.149,8.088,12.757,9.888,19.32c0,0,1.329,5.178-2.162,9.966c0,0-7.865-32.555-37.257-35.038
			c0,0-24.346-3.622-37.84,16.817c0,0-8.083,12.148-5.981,22.56c0,0-4.34-7.513-12.619-7.3
			C98.64,118.335,95.674,97.879,103.748,97.879z"/>
		<g>
			<path style="fill:#D69644;" d="M151.768,84.601c-22.406,0-40.57,17.422-40.57,38.914s18.164,38.914,40.57,38.914
				c22.406,0,40.569-17.422,40.569-38.914S174.174,84.601,151.768,84.601z M151.768,156.633c-19.068,0-34.527-14.828-34.527-33.118
				c0-18.291,15.459-33.118,34.527-33.118c19.069,0,34.527,14.827,34.527,33.118C186.295,141.805,170.837,156.633,151.768,156.633z"
				/>
			<path style="fill:#B16E36;" d="M151.768,84.601c-22.406,0-40.57,17.422-40.57,38.914s18.164,38.914,40.57,38.914
				c22.406,0,40.569-17.422,40.569-38.914S174.174,84.601,151.768,84.601z M151.768,159.183c-20.537,0-37.185-15.969-37.185-35.668
				c0-19.699,16.649-35.668,37.185-35.668c20.538,0,37.187,15.969,37.187,35.668C188.955,143.214,172.306,159.183,151.768,159.183z"
				/>
			<ellipse style="opacity:0.3;fill:#FFFFFF;" cx="151.768" cy="123.515" rx="34.527" ry="33.118"/>
			<path style="opacity:0.3;fill:#FFFFFF;" d="M164.607,138.892c-17.61-4.721-32.325-18.322-34.429-36.967
				c-0.152-1.345-0.235-2.695-0.266-4.046c-7.734,6.074-12.671,15.301-12.671,25.636c0,18.291,15.459,33.118,34.527,33.118
				c12.903,0,24.146-6.794,30.071-16.851C176.208,140.672,170.361,140.435,164.607,138.892z"/>
		</g>
	</g>
	<g>
		<path style="fill:#150000;" d="M308.152,97.879c-10.803-0.002-17.463-10.514-26.051-15.352
			c-17.309-9.752-41.715-5.521-54.813,9.481c-4.493,5.149-8.088,12.757-9.888,19.32c0,0-1.328,5.178,2.162,9.966
			c0,0,7.865-32.555,37.258-35.038c0,0,24.345-3.622,37.839,16.817c0,0,8.084,12.148,5.982,22.56c0,0,4.339-7.513,12.619-7.3
			C313.261,118.335,316.226,97.879,308.152,97.879z"/>
		<g>
			<path style="fill:#D69644;" d="M219.563,123.515c0,21.492,18.164,38.914,40.569,38.914c22.406,0,40.57-17.422,40.57-38.914
				s-18.164-38.914-40.57-38.914C237.727,84.601,219.563,102.023,219.563,123.515z M225.605,123.515
				c0-18.291,15.459-33.118,34.527-33.118c19.069,0,34.527,14.827,34.527,33.118c0,18.291-15.458,33.118-34.527,33.118
				C241.064,156.633,225.605,141.805,225.605,123.515z"/>
			<path style="fill:#B16E36;" d="M219.563,123.515c0,21.492,18.164,38.914,40.569,38.914c22.406,0,40.57-17.422,40.57-38.914
				s-18.164-38.914-40.57-38.914C237.727,84.601,219.563,102.023,219.563,123.515z M222.947,123.515
				c0-19.699,16.648-35.668,37.186-35.668c20.537,0,37.186,15.969,37.186,35.668c0,19.699-16.649,35.668-37.186,35.668
				C239.595,159.183,222.947,143.214,222.947,123.515z"/>
			<ellipse style="opacity:0.3;fill:#FFFFFF;" cx="260.132" cy="123.515" rx="34.527" ry="33.118"/>
			<path style="opacity:0.3;fill:#FFFFFF;" d="M247.294,138.892c17.611-4.721,32.325-18.322,34.43-36.967
				c0.151-1.345,0.234-2.695,0.266-4.046c7.734,6.074,12.671,15.301,12.671,25.636c0,18.291-15.458,33.118-34.527,33.118
				c-12.903,0-24.145-6.794-30.071-16.851C235.694,140.672,241.54,140.435,247.294,138.892z"/>
		</g>
	</g>
</g>
<polygon style="fill:#A7A9AC;" points="225.605,215.777 333.095,173.761 346.333,175.48 241.544,217.674 "/>
<polygon style="fill:#A7A9AC;" points="157.718,266.284 168.212,273.737 262.361,286.814 283.915,282.678 "/>
<polygon style="fill:#A7A9AC;" points="295.049,280.374 349.288,249.542 356.807,252.456 314.701,276.775 "/>
</svg>
